<?xml version="1.0" encoding="UTF-8" standalone="no"?>
<!DOCTYPE svg PUBLIC "-//W3C//DTD SVG 1.1//EN" "http://www.w3.org/Graphics/SVG/1.1/DTD/svg11.dtd">
<svg xmlns="http://www.w3.org/2000/svg" version="1.1" viewBox="0.00 0.00 512.00 512.00">
<path fill="none" stroke-width="5.00" stroke="#ef6284" vector-effect="non-scaling-stroke" d="
  M 433.63 180.00
  Q 430.20 148.91 418.22 122.77
  C 389.02 59.11 325.24 17.45 254.75 18.19
  Q 210.34 18.66 172.74 38.92
  Q 117.08 68.91 91.71 127.44
  Q 81.88 150.12 78.33 179.32
  Q 77.84 176.42 78.01 173.50
  Q 79.14 153.83 83.57 136.99
  C 93.20 100.39 114.07 67.43 143.75 43.54
  Q 182.15 12.63 230.87 5.58
  Q 240.56 4.18 250.82 3.93
  Q 307.50 2.55 354.26 33.29
  Q 376.45 47.88 393.47 68.59
  Q 430.32 113.48 433.96 172.74
  Q 434.19 176.58 433.63 180.00
  Z"
/>
<path fill="none" stroke-width="5.00" stroke="#df4666" vector-effect="non-scaling-stroke" d="
  M 433.63 180.00
  Q 434.36 189.83 432.02 201.50
  C 426.94 226.80 417.39 251.08 406.19 274.36
  Q 389.78 308.47 369.25 342.75
  C 335.65 398.85 296.98 454.48 256.41 507.57
  A 0.49 0.48 44.7 0 1 255.64 507.57
  Q 203.54 439.72 158.25 368.10
  C 136.75 334.10 116.21 297.75 99.41 260.39
  Q 89.56 238.47 82.63 213.63
  Q 77.67 195.85 78.33 179.32
  Q 81.88 150.12 91.71 127.44
  Q 117.08 68.91 172.74 38.92
  Q 210.34 18.66 254.75 18.19
  C 325.24 17.45 389.02 59.11 418.22 122.77
  Q 430.20 148.91 433.63 180.00
  Z
  M 371.78 176.44
  A 115.78 115.78 0.0 0 0 256.00 60.66
  A 115.78 115.78 0.0 0 0 140.22 176.44
  A 115.78 115.78 0.0 0 0 256.00 292.22
  A 115.78 115.78 0.0 0 0 371.78 176.44
  Z"
/>
<path fill="none" stroke-width="5.00" stroke="#f4f4f4" vector-effect="non-scaling-stroke" d="
  M 371.78 176.44
  A 115.78 115.78 0.0 0 1 256.00 292.22
  A 115.78 115.78 0.0 0 1 140.22 176.44
  A 115.78 115.78 0.0 0 1 256.00 60.66
  A 115.78 115.78 0.0 0 1 371.78 176.44
  Z
  M 168.51 144.95
  L 168.51 226.01
  Q 168.60 232.54 173.31 236.95
  Q 177.52 240.89 181.74 240.94
  Q 190.25 241.05 198.75 241.05
  Q 262.43 241.03 318.25 241.08
  C 322.65 241.08 327.96 241.46 331.82 240.11
  Q 341.04 236.90 341.78 226.05
  Q 342.46 226.59 342.47 225.25
  Q 342.80 184.85 342.52 144.99
  Q 341.22 141.05 342.15 136.51
  Q 342.25 135.98 342.02 135.50
  Q 339.51 130.33 334.14 127.85
  Q 331.47 126.61 323.75 126.63
  Q 310.60 126.67 299.25 126.72
  Q 294.13 126.75 289.52 123.25
  Q 286.94 121.29 285.33 117.40
  Q 283.41 112.76 281.05 109.10
  Q 278.26 104.78 272.94 104.74
  Q 257.19 104.60 239.53 104.67
  C 232.25 104.69 230.21 109.92 227.78 115.61
  C 225.08 121.92 219.78 126.60 212.78 126.68
  Q 200.61 126.82 189.03 126.63
  Q 181.69 126.51 178.10 127.86
  Q 172.14 130.10 169.44 136.46
  C 168.32 139.11 168.50 142.06 168.51 144.95
  Z
  M 184.82 124.52
  L 212.38 124.48
  A 0.46 0.46 0.0 0 0 212.84 124.02
  L 212.83 119.70
  A 5.04 4.74 -0.1 0 0 207.78 114.96
  L 189.38 115.00
  A 5.04 4.74 -0.1 0 0 184.35 119.74
  L 184.36 124.06
  A 0.46 0.46 0.0 0 0 184.82 124.52
  Z"
/>
<path fill="none" stroke-width="5.00" stroke="#d3d3d3" vector-effect="non-scaling-stroke" d="
  M 342.52 144.99
  L 277.51 145.08
  Q 275.33 144.48 272.78 143.50
  Q 269.56 142.25 268.10 141.86
  Q 254.41 138.21 240.86 143.00
  Q 237.56 144.16 234.34 145.36
  Q 234.00 144.93 233.50 144.93
  Q 201.11 144.96 168.51 144.95
  C 168.50 142.06 168.32 139.11 169.44 136.46
  Q 172.14 130.10 178.10 127.86
  Q 181.69 126.51 189.03 126.63
  Q 200.61 126.82 212.78 126.68
  C 219.78 126.60 225.08 121.92 227.78 115.61
  C 230.21 109.92 232.25 104.69 239.53 104.67
  Q 257.19 104.60 272.94 104.74
  Q 278.26 104.78 281.05 109.10
  Q 283.41 112.76 285.33 117.40
  Q 286.94 121.29 289.52 123.25
  Q 294.13 126.75 299.25 126.72
  Q 310.60 126.67 323.75 126.63
  Q 331.47 126.61 334.14 127.85
  Q 339.51 130.33 342.02 135.50
  Q 342.25 135.98 342.15 136.51
  Q 341.22 141.05 342.52 144.99
  Z"
/>
<path fill="none" stroke-width="5.00" stroke="#59595c" vector-effect="non-scaling-stroke" d="
  M 184.82 124.52
  A 0.46 0.46 0.0 0 1 184.36 124.06
  L 184.35 119.74
  A 5.04 4.74 -0.1 0 1 189.38 115.00
  L 207.78 114.96
  A 5.04 4.74 -0.1 0 1 212.83 119.70
  L 212.84 124.02
  A 0.46 0.46 0.0 0 1 212.38 124.48
  L 184.82 124.52
  Z"
/>
<path fill="none" stroke-width="5.00" stroke="#59595c" vector-effect="non-scaling-stroke" d="
  M 277.51 145.08
  Q 280.13 147.10 282.53 148.83
  C 308.60 167.55 307.79 205.53 281.54 223.63
  Q 280.07 224.64 278.60 225.97
  Q 277.02 226.40 275.18 227.27
  C 263.94 232.61 251.19 232.92 239.60 228.40
  Q 236.25 227.09 233.14 225.94
  L 232.83 225.48
  A 2.34 2.24 0.8 0 0 232.17 224.83
  C 202.44 206.11 203.31 163.83 233.47 146.13
  Q 233.72 145.98 233.91 145.76
  Q 234.11 145.53 234.34 145.36
  Q 237.56 144.16 240.86 143.00
  Q 254.41 138.21 268.10 141.86
  Q 269.56 142.25 272.78 143.50
  Q 275.33 144.48 277.51 145.08
  Z
  M 282.75 185.89
  A 26.76 26.76 0.0 0 0 255.99 159.13
  A 26.76 26.76 0.0 0 0 229.23 185.89
  A 26.76 26.76 0.0 0 0 255.99 212.65
  A 26.76 26.76 0.0 0 0 282.75 185.89
  Z"
/>
<path fill="none" stroke-width="5.00" stroke="#909192" vector-effect="non-scaling-stroke" d="
  M 342.52 144.99
  Q 342.80 184.85 342.47 225.25
  Q 342.46 226.59 341.78 226.05
  L 278.60 225.97
  Q 280.07 224.64 281.54 223.63
  C 307.79 205.53 308.60 167.55 282.53 148.83
  Q 280.13 147.10 277.51 145.08
  L 342.52 144.99
  Z"
/>
<path fill="none" stroke-width="5.00" stroke="#909192" vector-effect="non-scaling-stroke" d="
  M 168.51 144.95
  Q 201.11 144.96 233.50 144.93
  Q 234.00 144.93 234.34 145.36
  Q 234.11 145.53 233.91 145.76
  Q 233.72 145.98 233.47 146.13
  C 203.31 163.83 202.44 206.11 232.17 224.83
  A 2.34 2.24 0.8 0 1 232.83 225.48
  L 233.14 225.94
  L 168.51 226.01
  L 168.51 144.95
  Z"
/>
<path fill="none" stroke-width="5.00" stroke="#d3d3d3" vector-effect="non-scaling-stroke" d="
  M 282.75 185.89
  A 26.76 26.76 0.0 0 1 255.99 212.65
  A 26.76 26.76 0.0 0 1 229.23 185.89
  A 26.76 26.76 0.0 0 1 255.99 159.13
  A 26.76 26.76 0.0 0 1 282.75 185.89
  Z
  M 278.83 185.89
  A 22.83 22.83 0.0 0 0 256.00 163.06
  A 22.83 22.83 0.0 0 0 233.17 185.89
  A 22.83 22.83 0.0 0 0 256.00 208.72
  A 22.83 22.83 0.0 0 0 278.83 185.89
  Z"
/>
<circle fill="none" stroke-width="5.00" stroke="#7da4c3" vector-effect="non-scaling-stroke" cx="256.00" cy="185.89" r="22.83"/>
<path fill="none" stroke-width="5.00" stroke="#d3d3d3" vector-effect="non-scaling-stroke" d="
  M 233.14 225.94
  Q 236.25 227.09 239.60 228.40
  C 251.19 232.92 263.94 232.61 275.18 227.27
  Q 277.02 226.40 278.60 225.97
  L 341.78 226.05
  Q 341.04 236.90 331.82 240.11
  C 327.96 241.46 322.65 241.08 318.25 241.08
  Q 262.43 241.03 198.75 241.05
  Q 190.25 241.05 181.74 240.94
  Q 177.52 240.89 173.31 236.95
  Q 168.60 232.54 168.51 226.01
  L 233.14 225.94
  Z"
/>
</svg>
